<svg xmlns="http://www.w3.org/2000/svg" version="1.1" id="svg6485" height="32" width="32"><g transform="translate(0 -1020.362)" id="layer1"><g transform="translate(-351.995 -315.25)" id="g15059" color="#000" clip-rule="nonzero" visibility="visible" color-interpolation="sRGB" color-interpolation-filters="linearRGB" fill-opacity="1" fill-rule="nonzero" stroke="none" stroke-linecap="round" stroke-linejoin="round" stroke-miterlimit="4" stroke-dasharray="none" stroke-dashoffset="0" stroke-opacity="1" color-rendering="auto" image-rendering="auto" shape-rendering="auto" text-rendering="auto"><circle r="1.876" cy="1352.335" cx="368.058" id="circle15038" style="isolation:auto;mix-blend-mode:normal;solid-color:#000;solid-opacity:1" display="inline" overflow="visible" opacity="1" fill="#ed7899" stroke-width=".5"/><circle style="isolation:auto;mix-blend-mode:normal;solid-color:#000;solid-opacity:1" id="circle15053" cx="361.495" cy="1355.866" r="1.876" display="inline" overflow="visible" opacity="1" fill="#f6d397" stroke-width=".5"/><circle r="1.876" cy="1352.366" cx="377.87" id="circle15055" style="isolation:auto;mix-blend-mode:normal;solid-color:#000;solid-opacity:1" display="inline" overflow="visible" opacity="1" fill="#85cbf8" stroke-width=".5"/><circle style="isolation:auto;mix-blend-mode:normal;solid-color:#000;solid-opacity:1" id="circle15057" cx="366.526" cy="1339.304" r="1.876" display="inline" overflow="visible" opacity="1" fill="#64d5b3" stroke-width=".5"/><path style="line-height:normal;text-indent:0;text-align:start;text-decoration-line:none;text-decoration-style:solid;text-decoration-color:#000;text-transform:none;block-progression:tb;white-space:normal;isolation:auto;mix-blend-mode:normal;solid-color:#000;solid-opacity:1" d="M366.5 1336.862a2.508 2.508 0 00-2.5 2.5c0 .406.107.783.281 1.123-.606.751-1.134 1.661-1.582 2.696-.21-.025-.425-.055-.63-.07-2.804-.21-5.156.454-6.194 2.252-.724 1.254-.644 2.84.037 4.478.343.825.841 1.674 1.479 2.528-.125.167-.255.336-.37.503-1.583 2.323-2.184 4.691-1.146 6.489 1.038 1.797 3.39 2.462 6.193 2.252.205-.015.419-.046.63-.07.394.916.842 1.737 1.345 2.42 1.095 1.485 2.463 2.4 3.957 2.4 2.076 0 3.827-1.704 5.047-4.236.09-.186.17-.387.254-.582.21.024.425.054.63.07 2.804.21 5.156-.455 6.194-2.253.826-1.43.61-3.306-.424-5.275.431-.45.7-1.056.7-1.725 0-.668-.27-1.274-.702-1.724 1.035-1.97 1.253-3.849.426-5.281-1.038-1.798-3.39-2.463-6.193-2.252v.01c-.205.015-.418.046-.627.07-.034-.078-.063-.164-.098-.24-1.065-2.37-2.558-4.06-4.38-4.473a2.503 2.503 0 00-2.327-1.606zm0 1c.834 0 1.5.666 1.5 1.5 0 .835-.666 1.5-1.5 1.5s-1.5-.665-1.5-1.5c0-.834.666-1.5 1.5-1.5zm2.48 1.692c1.226.464 2.402 1.785 3.303 3.779-1.36.245-2.803.663-4.283 1.26a21.95 21.95 0 00-4.262-1.256c.355-.787.753-1.474 1.19-2.051.431.354.974.576 1.572.576a2.5 2.5 0 002.48-2.308zm5.97 4.513c2.116.01 3.645.642 4.308 1.79.586 1.015.494 2.474-.387 4.202a2.476 2.476 0 00-.97-.197c-.445 0-.857.127-1.22.332-.6-.584-1.25-1.15-1.945-1.691a22.036 22.036 0 00-1.052-4.365c.106-.011.217-.027.322-.035.325-.024.64-.036.943-.035zm-13.9.01c.303 0 .619.011.944.035.103.01.213.025.318.035-.471 1.314-.824 2.779-1.042 4.344a21.937 21.937 0 00-3.225 3.063c-.517-.722-.932-1.427-1.21-2.092-.604-1.455-.619-2.685-.093-3.596.663-1.147 2.192-1.78 4.309-1.79zm11.622.201a20.16 20.16 0 01.908 3.38 29.258 29.258 0 00-1.976-1.274.5.5 0 00-.104-.078c-.73-.421-1.46-.796-2.19-1.137a20.046 20.046 0 013.362-.89zm-9.332.01c1.054.178 2.18.473 3.344.885-.727.34-1.456.715-2.184 1.135a.46.46 0 00-.08.057h-.002c-.693.404-1.349.83-1.979 1.27.225-1.205.526-2.336.9-3.346zm4.652 1.395a26.78 26.78 0 015.795 3.338c.135 1.07.213 2.19.213 3.348 0 1.159-.08 2.275-.215 3.345-.87.66-1.805 1.284-2.785 1.85a26.76 26.76 0 01-3.002 1.486 26.77 26.77 0 01-2.998-1.484c-.407-.235-.8-.49-1.191-.744.123-.295.191-.616.191-.953 0-1.194-.85-2.198-1.973-2.442-.013-.353-.027-.706-.027-1.06 0-1.145.077-2.265.215-3.342a26.799 26.799 0 012.775-1.848l.01-.01c1-.577 2.003-1.067 2.992-1.484zm.008 4.186a2.508 2.508 0 00-2.5 2.5c0 1.374 1.125 2.5 2.5 2.5s2.5-1.126 2.5-2.5c0-1.375-1.125-2.5-2.5-2.5zm-6.883.037c-.07.806-.117 1.626-.117 2.463 0 .35.015.698.027 1.046-.362.07-.693.223-.982.432-.51-.497-.964-.994-1.371-1.488a20.066 20.066 0 012.443-2.453zm13.776.012c.36.307.7.623 1.03.941a2.475 2.475 0 00-.522 1.51c0 .568.199 1.087.521 1.508-.333.322-.677.64-1.043.95.066-.77.109-1.557.111-2.366 0 0 .002 0 .002-.012a.491.491 0 00.008-.086c0-.835-.038-1.65-.107-2.446zm-6.893.944c.834 0 1.5.666 1.5 1.5 0 .835-.666 1.5-1.5 1.5s-1.5-.665-1.5-1.5c0-.834.666-1.5 1.5-1.5zm9.9 0c.835 0 1.5.666 1.5 1.5 0 .49-.232.915-.59 1.188h-.001c-.252.191-.564.31-.909.31-.834 0-1.5-.665-1.5-1.5 0-.436.184-.824.477-1.097a.55.55 0 00.13-.106c.25-.184.556-.297.893-.297zm-19.853 2.301c.4.472.837.944 1.32 1.412-.229.377-.367.816-.367 1.287 0 1.375 1.125 2.5 2.5 2.5.06 0 .115-.013.174-.018.185.796.406 1.537.656 2.235-.111.01-.227.029-.336.037-2.605.195-4.495-.445-5.252-1.756-.757-1.312-.366-3.268 1.106-5.426.06-.09.134-.181.199-.272zm3.453 1.2c.834 0 1.5.665 1.5 1.5 0 .834-.666 1.5-1.5 1.5s-1.5-.666-1.5-1.5c0-.835.666-1.5 1.5-1.5zm15.182.167c.362.205.774.332 1.218.332.346 0 .675-.07.975-.199.88 1.727.969 3.184.383 4.2-.757 1.31-2.647 1.95-5.252 1.755-.106-.01-.218-.026-.326-.037.465-1.3.822-2.762 1.043-4.342.7-.548 1.354-1.118 1.959-1.709zm-3.108 2.555a20.074 20.074 0 01-.908 3.36 20.053 20.053 0 01-3.353-.89c.727-.34 1.458-.712 2.187-1.132.72-.416 1.407-.87 2.074-1.338zm-10.328.558c.413.268.826.535 1.254.782.727.42 1.456.791 2.182 1.13a20.057 20.057 0 01-3.34.885 18.932 18.932 0 01-.705-2.365c.223-.116.43-.257.61-.432zm4.752 2.487a21.945 21.945 0 004.28 1.26c-.045.098-.085.206-.132.302-1.133 2.354-2.632 3.67-4.146 3.67-1.085 0-2.175-.667-3.152-1.992-.405-.55-.775-1.232-1.116-1.984a21.947 21.947 0 004.266-1.256z" id="path8951" font-style="normal" font-variant="normal" font-weight="400" font-stretch="normal" font-size="medium" font-family="sans-serif" text-decoration="none" letter-spacing="normal" word-spacing="normal" direction="ltr" writing-mode="lr-tb" baseline-shift="baseline" text-anchor="start" display="inline" overflow="visible" opacity="1" fill="#8d6c9f" stroke-width="1" paint-order="fill markers stroke"/></g></g><style type="text/css" id="style5178"></style></svg>